<?xml version="1.0" encoding="UTF-8" standalone="no" ?>
<!DOCTYPE svg PUBLIC "-//W3C//DTD SVG 1.1//EN" "http://www.w3.org/Graphics/SVG/1.1/DTD/svg11.dtd">
<svg xmlns="http://www.w3.org/2000/svg" xmlns:xlink="http://www.w3.org/1999/xlink" version="1.1" width="1080" height="1080" viewBox="0 0 1080 1080" xml:space="preserve">
<desc>Created with Fabric.js 5.2.4</desc>
<defs>
</defs>
<g transform="matrix(1 0 0 1 540 540)" id="8b2370d9-6b09-4ff9-a261-6dcdfcfa4cb6"  >
<rect style="stroke: none; stroke-width: 1; stroke-dasharray: none; stroke-linecap: butt; stroke-dashoffset: 0; stroke-linejoin: miter; stroke-miterlimit: 4; fill: rgb(255,255,255); fill-rule: nonzero; opacity: 1; visibility: hidden;" vector-effect="non-scaling-stroke"  x="-540" y="-540" rx="0" ry="0" width="1080" height="1080" />
</g>
<g transform="matrix(1 0 0 1 540 540)" id="204c21b6-c214-476c-874d-2cd2e608c5bf"  >
</g>
<g transform="matrix(67.5 0 0 67.5 540 540)"  >
<path style="stroke: none; stroke-width: 1; stroke-dasharray: none; stroke-linecap: butt; stroke-dashoffset: 0; stroke-linejoin: miter; stroke-miterlimit: 4; fill: rgb(113,109,109); fill-rule: evenodd; opacity: 1;"  transform=" translate(-456, -551.75)" d="M 459.75 551 C 458.51 551 457.5 549.879 457.5 548.5 C 457.5 546.958 458.363 546 459.75 546 C 461.137 546 462 546.958 462 548.5 C 462 549.879 460.99 551 459.75 551 M 460.442 552 L 459.058 552 C 458.953 552 458.848 552.005 458.746 552.014 C 458.63070542556596 552.0247862614576 458.5319128051113 552.1009647293889 458.49216811412265 552.2097284267718 C 458.45242342313406 552.3184921241545 458.47882392728286 552.4404189637485 458.56 552.523 C 459.48459821790675 553.465131410401 460.0017884549288 554.7329658108786 460 556.053 L 460 557.2 C 460 557.3656854249492 460.1343145750508 557.5 460.3 557.5 L 462.315 557.5 C 463.24399999999997 557.5 464 556.744 464 555.815 L 464 555.5580000000001 C 463.99779560361475 553.5938846756205 462.4061153243796 552.0022043963853 460.442 552.0000000000001 M 457.41 558.5000000000001 L 449.59000000000003 558.5000000000001 C 448.713 558.5000000000001 448.00000000000006 557.7860000000001 448.00000000000006 556.9100000000001 L 448.00000000000006 556.0530000000001 C 448.0022049743814 553.8155038756643 449.81550387566426 552.0022049743815 452.05300000000005 552.0000000000001 L 454.94700000000006 552.0000000000001 C 457.18449612433585 552.0022049743815 458.9977950256187 553.8155038756643 459.00000000000006 556.0530000000001 L 459.00000000000006 556.9090000000001 C 459.00000000000006 557.7860000000001 458.28700000000003 558.5000000000001 457.4100000000001 558.5000000000001 M 453.50000000000006 551.0000000000001 C 452.12100000000004 551.0000000000001 451.00000000000006 549.6540000000001 451.00000000000006 548.0000000000001 C 451.00000000000006 546.1210000000001 451.93500000000006 545.0000000000001 453.50000000000006 545.0000000000001 C 455.06500000000005 545.0000000000001 456.00000000000006 546.1210000000001 456.00000000000006 548.0000000000001 C 456.00000000000006 549.6540000000001 454.8790000000001 551.0000000000001 453.50000000000006 551.0000000000001" stroke-linecap="round" />
</g>
</svg>