<?xml version="1.0" encoding="UTF-8" standalone="no" ?>
<!DOCTYPE svg PUBLIC "-//W3C//DTD SVG 1.1//EN" "http://www.w3.org/Graphics/SVG/1.1/DTD/svg11.dtd">
<svg xmlns="http://www.w3.org/2000/svg" xmlns:xlink="http://www.w3.org/1999/xlink" version="1.1" width="1080" height="1080" viewBox="0 0 1080 1080" xml:space="preserve">
<desc>Created with Fabric.js 5.2.4</desc>
<defs>
</defs>
<rect x="0" y="0" width="100%" height="100%" fill="transparent"></rect>
<g transform="matrix(1 0 0 1 540 540)" id="614bf676-90ed-426a-aa3c-1d6c89cf136c"  >
<rect style="stroke: none; stroke-width: 1; stroke-dasharray: none; stroke-linecap: butt; stroke-dashoffset: 0; stroke-linejoin: miter; stroke-miterlimit: 4; fill: rgb(255,255,255); fill-rule: nonzero; opacity: 1; visibility: hidden;" vector-effect="non-scaling-stroke"  x="-540" y="-540" rx="0" ry="0" width="1080" height="1080" />
</g>
<g transform="matrix(1 0 0 1 540 540)" id="5d893c62-d754-465e-957b-1827116d1f2c"  >
</g>
<g transform="matrix(38.57 0 0 38.57 540 540)"  >
<path style="stroke: none; stroke-width: 1; stroke-dasharray: none; stroke-linecap: butt; stroke-dashoffset: 0; stroke-linejoin: miter; stroke-miterlimit: 4; fill: rgb(0,0,0); fill-rule: nonzero; opacity: 1;"  transform=" translate(-14, -14)" d="M 25.825 12.29 C 25.824 12.289 25.823 12.288 25.821 12.286 L 15.027 2.937 C 14.752 2.675 14.392 2.527 13.989 2.521 C 13.608 2.527 13.248 2.675 13.001 2.912 L 2.175 12.29 C 1.756 12.658 1.629 13.245 1.868 13.759 C 2.079 14.215 2.567 14.479 3.069 14.479 L 5 14.479 L 5 23.729 C 5 24.695 5.784 25.479 6.75 25.479 L 11 25.479 C 11.552 25.479 12 25.031 12 24.479 L 12 18.309 C 12 18.126 12.148 17.979 12.33 17.979 L 15.67 17.979 C 15.852 17.979 16 18.126 16 18.309 L 16 24.479 C 16 25.031 16.448 25.479 17 25.479 L 21.25 25.479 C 22.217 25.479 23 24.695 23 23.729 L 23 14.479 L 24.931 14.479 C 25.433 14.479 25.921 14.215 26.132 13.759 C 26.371 13.245 26.244 12.658 25.825 12.29" stroke-linecap="round" />
</g>
</svg>