<?xml version="1.0" encoding="UTF-8" standalone="no" ?>
<!DOCTYPE svg PUBLIC "-//W3C//DTD SVG 1.1//EN" "http://www.w3.org/Graphics/SVG/1.1/DTD/svg11.dtd">
<svg xmlns="http://www.w3.org/2000/svg" xmlns:xlink="http://www.w3.org/1999/xlink" version="1.1" width="1080" height="1080" viewBox="0 0 1080 1080" xml:space="preserve">
<desc>Created with Fabric.js 5.2.4</desc>
<defs>
</defs>
<rect x="0" y="0" width="100%" height="100%" fill="transparent"></rect>
<g transform="matrix(1 0 0 1 540 540)" id="5d893c62-d754-465e-957b-1827116d1f2c"  >
</g>
<g transform="matrix(1 0 0 1 540 540)" id="614bf676-90ed-426a-aa3c-1d6c89cf136c"  >
<rect style="stroke: none; stroke-width: 1; stroke-dasharray: none; stroke-linecap: butt; stroke-dashoffset: 0; stroke-linejoin: miter; stroke-miterlimit: 4; fill: rgb(255,255,255); fill-rule: nonzero; opacity: 1; visibility: hidden;" vector-effect="non-scaling-stroke"  x="-540" y="-540" rx="0" ry="0" width="1080" height="1080" />
</g>
<g transform="matrix(38.57 0 0 38.57 540 540)"  >
<path style="stroke: none; stroke-width: 1; stroke-dasharray: none; stroke-linecap: butt; stroke-dashoffset: 0; stroke-linejoin: miter; stroke-miterlimit: 4; fill: rgb(0,0,0); fill-rule: nonzero; opacity: 1;"  transform=" translate(-14, -14)" d="M 10.995 23.625 L 10.995 17.825 C 10.995 17.299 11.418999999999999 16.875 11.944999999999999 16.875 L 16.034999999999997 16.875 C 16.560999999999996 16.875 16.984999999999996 17.299 16.984999999999996 17.825 L 16.984999999999996 23.625 L 21.964999999999996 23.625 C 22.394999999999996 23.625 22.744999999999997 23.277 22.744999999999997 22.845 L 22.744999999999997 14.581 C 22.621 14.508 22.502999999999997 14.421999999999999 22.394999999999996 14.325 L 21.984999999999996 13.955 C 21.794999999999995 13.785 21.534999999999997 13.785 21.344999999999995 13.955 L 21.174999999999994 14.105 C 20.624999999999993 14.595 19.924999999999994 14.865 19.204999999999995 14.865 L 18.974999999999994 14.865 C 18.264999999999993 14.865 17.564999999999994 14.605 17.014999999999993 14.115 L 16.824999999999992 13.945 C 16.63499999999999 13.775 16.374999999999993 13.775 16.18499999999999 13.945 L 15.994999999999992 14.115 C 15.444999999999991 14.605 14.744999999999992 14.875 14.034999999999993 14.875 L 13.894999999999992 14.875 C 13.184999999999992 14.875 12.494999999999992 14.615 11.954999999999993 14.135 L 11.734999999999992 13.945 C 11.544999999999993 13.775 11.284999999999993 13.775 11.094999999999992 13.945 L 10.914999999999992 14.105 C 10.364999999999991 14.595 9.664999999999992 14.865 8.944999999999991 14.865 L 8.764999999999992 14.865 C 8.044999999999991 14.865 7.3549999999999915 14.605 6.804999999999992 14.115 L 6.6049999999999915 13.945 C 6.424999999999992 13.775 6.164999999999991 13.775 5.974999999999992 13.945 L 5.494999999999992 14.375 C 5.4189999999999925 14.442 5.338999999999992 14.504 5.254999999999992 14.558 L 5.254999999999992 22.845 C 5.254999999999992 23.275 5.602999999999992 23.625 6.034999999999992 23.625 L 10.994999999999992 23.625 z M 24.244999999999997 14.83 L 24.244999999999997 22.845 C 24.244999999999997 24.107 23.221999999999998 25.125 21.964999999999996 25.125 L 6.034999999999997 25.125 C 4.772999999999996 25.125 3.754999999999997 24.102 3.754999999999997 22.845 L 3.754999999999997 14.855999999999998 C 2.761999999999997 14.716999999999999 1.9949999999999968 13.817999999999998 1.9949999999999968 12.724999999999998 L 1.9949999999999968 10.374999999999998 C 1.9949999999999968 10.094999999999999 2.2149999999999967 9.874999999999998 2.4949999999999966 9.874999999999998 L 25.505 9.874999999999998 C 25.785 9.874999999999998 26.005 10.094999999999999 26.005 10.374999999999998 L 26.005 12.554999999999998 C 26.005 13.678999999999998 25.249 14.617999999999999 24.244999999999997 14.829999999999998 z M 24.955 8.875 L 3.0249999999999986 8.875 C 2.6749999999999985 8.875 2.4349999999999987 8.515 2.5649999999999986 8.185 L 4.384999999999999 3.6950000000000003 C 4.574999999999999 3.205 5.034999999999999 2.8750000000000004 5.554999999999999 2.8750000000000004 L 22.425 2.8750000000000004 C 22.945 2.8750000000000004 23.405 3.2050000000000005 23.595 3.7050000000000005 L 25.415 8.185 C 25.555 8.515 25.305 8.875 24.955 8.875 z" stroke-linecap="round" />
</g>
</svg>