<?xml version="1.0" encoding="UTF-8" standalone="no" ?>
<!DOCTYPE svg PUBLIC "-//W3C//DTD SVG 1.1//EN" "http://www.w3.org/Graphics/SVG/1.1/DTD/svg11.dtd">
<svg xmlns="http://www.w3.org/2000/svg" xmlns:xlink="http://www.w3.org/1999/xlink" version="1.1" width="1080" height="1080" viewBox="0 0 1080 1080" xml:space="preserve">
<desc>Created with Fabric.js 5.2.4</desc>
<defs>
</defs>
<rect x="0" y="0" width="100%" height="100%" fill="transparent"></rect>
<g transform="matrix(1 0 0 1 540 540)" id="5d893c62-d754-465e-957b-1827116d1f2c"  >
</g>
<g transform="matrix(1 0 0 1 540 540)" id="614bf676-90ed-426a-aa3c-1d6c89cf136c"  >
<rect style="stroke: none; stroke-width: 1; stroke-dasharray: none; stroke-linecap: butt; stroke-dashoffset: 0; stroke-linejoin: miter; stroke-miterlimit: 4; fill: rgb(255,255,255); fill-rule: nonzero; opacity: 1; visibility: hidden;" vector-effect="non-scaling-stroke"  x="-540" y="-540" rx="0" ry="0" width="1080" height="1080" />
</g>
<g transform="matrix(90 0 0 90 540 540)"  >
<path style="stroke: none; stroke-width: 1; stroke-dasharray: none; stroke-linecap: butt; stroke-dashoffset: 0; stroke-linejoin: miter; stroke-miterlimit: 4; fill: rgb(0,0,0); fill-rule: evenodd; opacity: 1;"  transform=" translate(-456, -1079.5)" d="M 459.603 1077.948 L 457.841 1080.7990000000002 C 457.70989179873357 1081.0151080314483 457.49307625824986 1081.1652733345832 457.2446671735711 1081.2120169795494 C 456.9962580888923 1081.2587606245158 456.73969061036587 1081.197672771195 456.539 1081.044 L 455.137 1079.9720000000002 C 455.0092657734174 1079.8737316257634 454.8312789709395 1079.8741426807344 454.704 1079.9730000000002 L 452.81100000000004 1081.438 C 452.55800000000005 1081.634 452.228 1081.326 452.39700000000005 1081.0520000000001 L 454.16 1078.201 C 454.2911234908082 1077.9852010329628 454.5077427753905 1077.8352592929982 454.7558935057677 1077.7885283714438 C 455.00404423614486 1077.7417974498894 455.2603646404731 1077.8026767580452 455.461 1077.9560000000001 L 456.863 1079.028 C 456.990930660592 1079.1267848867099 457.16952592526883 1079.1263733768835 457.297 1079.027 L 459.19 1077.5620000000001 C 459.443 1077.3660000000002 459.772 1077.6740000000002 459.603 1077.948 M 456 1073.5 C 452.62 1073.5 450 1075.976 450 1079.32 C 450 1081.07 450.717 1082.58 451.884 1083.625 C 451.983 1083.712 452.04200000000003 1083.835 452.046 1083.967 L 452.078 1085.034 C 452.08264914235895 1085.1937973490699 452.16654905515924 1085.3407928297834 452.3017750515383 1085.4260614476782 C 452.43700104791736 1085.511330065573 452.60580375249407 1085.5236797070927 452.75199999999995 1085.459 L 453.9429999999999 1084.933 C 454.04361119500055 1084.8879558778526 454.1567955248219 1084.879467053116 454.2629999999999 1084.909 C 454.8109999999999 1085.0600000000002 455.3929999999999 1085.14 455.99999999999994 1085.14 C 459.37999999999994 1085.14 461.99999999999994 1082.664 461.99999999999994 1079.3200000000002 C 461.99999999999994 1075.976 459.37999999999994 1073.5000000000002 455.99999999999994 1073.5000000000002" stroke-linecap="round" />
</g>
<g transform="matrix(NaN NaN NaN NaN 0 0)"  >
<g style=""   >
</g>
</g>
</svg>