<?xml version="1.0" encoding="UTF-8" standalone="no" ?>
<!DOCTYPE svg PUBLIC "-//W3C//DTD SVG 1.1//EN" "http://www.w3.org/Graphics/SVG/1.1/DTD/svg11.dtd">
<svg xmlns="http://www.w3.org/2000/svg" xmlns:xlink="http://www.w3.org/1999/xlink" version="1.1" width="1080" height="1080" viewBox="0 0 1080 1080" xml:space="preserve">
<desc>Created with Fabric.js 5.2.4</desc>
<defs>
</defs>
<rect x="0" y="0" width="100%" height="100%" fill="transparent"></rect>
<g transform="matrix(1 0 0 1 540 540)" id="5d893c62-d754-465e-957b-1827116d1f2c"  >
</g>
<g transform="matrix(1 0 0 1 540 540)" id="614bf676-90ed-426a-aa3c-1d6c89cf136c"  >
<rect style="stroke: none; stroke-width: 1; stroke-dasharray: none; stroke-linecap: butt; stroke-dashoffset: 0; stroke-linejoin: miter; stroke-miterlimit: 4; fill: rgb(255,255,255); fill-rule: nonzero; opacity: 1; visibility: hidden;" vector-effect="non-scaling-stroke"  x="-540" y="-540" rx="0" ry="0" width="1080" height="1080" />
</g>
<g transform="matrix(38.57 0 0 38.57 540 540)"  >
<path style="stroke: none; stroke-width: 1; stroke-dasharray: none; stroke-linecap: butt; stroke-dashoffset: 0; stroke-linejoin: miter; stroke-miterlimit: 4; fill: rgb(0,0,0); fill-rule: nonzero; opacity: 1;"  transform=" translate(-13.96, -13.9)" d="M 7.847 23.488 C 9.207 23.488 11.443 23.363 14.467 22.806 C 13.944 24.228 12.581 25.247 10.98 25.247 C 9.649 25.247 8.483 24.542 7.825 23.488 L 7.847 23.488 Z M 24.923 15.73 C 25.17 17.002 24.278 18.127 22.27 19.076 C 21.17 19.595 18.724 20.583 14.684 21.369 C 11.568 21.974 9.285 22.113 7.848 22.113 C 7.421 22.113 7.068 22.101 6.79 22.085 C 4.574 21.958 3.324 21.248 3.077 19.976 C 2.702 18.049 3.295 17.305 4.278 16.073 L 4.537 15.748 C 5.2 14.907 5.459 14.081 5.035 11.902 C 4.086 7.022 6.284 3.687 11.064 2.753 C 15.846 1.83 19.134 4.096 20.083 8.977 C 20.506 11.156 21.056 11.824 21.986 12.355 L 21.986 12.356 L 22.348 12.561 C 23.72 13.335 24.548 13.802 24.923 15.73 Z" stroke-linecap="round" />
</g>
<g transform="matrix(NaN NaN NaN NaN 0 0)"  >
<g style=""   >
</g>
</g>
</svg>