<?xml version="1.0" encoding="UTF-8" standalone="no" ?>
<!DOCTYPE svg PUBLIC "-//W3C//DTD SVG 1.1//EN" "http://www.w3.org/Graphics/SVG/1.1/DTD/svg11.dtd">
<svg xmlns="http://www.w3.org/2000/svg" xmlns:xlink="http://www.w3.org/1999/xlink" version="1.1" width="1080" height="1080" viewBox="0 0 1080 1080" xml:space="preserve">
<desc>Created with Fabric.js 5.2.4</desc>
<defs>
</defs>
<rect x="0" y="0" width="100%" height="100%" fill="transparent"></rect>
<g transform="matrix(1 0 0 1 540 540)" id="5d893c62-d754-465e-957b-1827116d1f2c"  >
</g>
<g transform="matrix(1 0 0 1 540 540)" id="614bf676-90ed-426a-aa3c-1d6c89cf136c"  >
<rect style="stroke: none; stroke-width: 1; stroke-dasharray: none; stroke-linecap: butt; stroke-dashoffset: 0; stroke-linejoin: miter; stroke-miterlimit: 4; fill: rgb(255,255,255); fill-rule: nonzero; opacity: 1; visibility: hidden;" vector-effect="non-scaling-stroke"  x="-540" y="-540" rx="0" ry="0" width="1080" height="1080" />
</g>
<g transform="matrix(38.57 0 0 38.57 540 540)"  >
<path style="stroke: none; stroke-width: 1; stroke-dasharray: none; stroke-linecap: butt; stroke-dashoffset: 0; stroke-linejoin: miter; stroke-miterlimit: 4; fill: rgb(0,0,0); fill-rule: nonzero; opacity: 1;"  transform=" translate(-14, -14)" d="M 8.75 25.25 C 8.336 25.25 8 24.914 8 24.5 C 8 24.086 8.336 23.75 8.75 23.75 L 19.25 23.75 C 19.664 23.75 20 24.086 20 24.5 C 20 24.914 19.664 25.25 19.25 25.25 L 8.75 25.25 Z M 17.163 12.846 L 12.055 15.923 C 11.591 16.202 11 15.869 11 15.327 L 11 9.172 C 11 8.631 11.591 8.297 12.055 8.576 L 17.163 11.654 C 17.612 11.924 17.612 12.575 17.163 12.846 Z M 21.75 20.25 C 22.992 20.25 24 19.242 24 18 L 24 6.5 C 24 5.258 22.992 4.25 21.75 4.25 L 6.25 4.25 C 5.008 4.25 4 5.258 4 6.5 L 4 18 C 4 19.242 5.008 20.25 6.25 20.25 L 21.75 20.25 Z M 21.75 21.75 L 6.25 21.75 C 4.179 21.75 2.5 20.071 2.5 18 L 2.5 6.5 C 2.5 4.429 4.179 2.75 6.25 2.75 L 21.75 2.75 C 23.821 2.75 25.5 4.429 25.5 6.5 L 25.5 18 C 25.5 20.071 23.821 21.75 21.75 21.75 Z" stroke-linecap="round" />
</g>
</svg>